# xmcd
#
# Track frame offsets:
#	150
#	11680
#	30029
#	45941
#	69827
#	108395
#	127777
#	146921
#	159832
#	187989
#	200704
#	244275
#	250255
#	272111
#
# Disc length: 3834 seconds
#
# Revision: 0
# Processed by: cddbd v1.5.2PL0 Copyright (c) Steve Scherf et al.
# Submitted via: audiograbber 1.83.01
#
DISCID=b30ef80e
DTITLE=Chuck Berry - Rock And Roll Music - Any Old Way You Choose It [CD 15) - 
DTITLE=On Stage 1969
DYEAR=2014
DGENRE=Rock and Roll
TTITLE0=Rock And Roll Music [live - Toronto Rock 'n' Roll Revival September 13,
TTITLE0=1969] [mono 1978]
TTITLE1=Nadine [live - Toronto Rock 'n' Roll Revival September 13, 1969] [mono 
TTITLE1=1978]
TTITLE2=School Day (Long Live Rock And Roll) [live - Toronto Rock 'n' Roll Revi
TTITLE2=val September 13, 1969] [mono 1978]
TTITLE3=(In The) Wee Wee Hours [live - Toronto Rock 'n' Roll Revival September 
TTITLE3=13, 1969] [mono 1978]
TTITLE4=Johnny B. Goode/Carol/Promised Land [live - Toronto Rock 'n' Roll Reviv
TTITLE4=al September 13, 1969] [mono 1978]
TTITLE5=Hoochie Coochie Man [live - Toronto Rock 'n' Roll Revival September 13,
TTITLE5=1969] [mono 1978]
TTITLE6=Memphis Tennessee [live - Toronto Rock 'n' Roll Revival September 13, 1
TTITLE6=969] [mono 1978]
TTITLE7=Too Much Monkey Business [live - Toronto Rock 'n' Roll Revival Septembe
TTITLE7=r 13, 1969] [mono 1978]
TTITLE8=Reelin' And Rockin' [live - Toronto Rock 'n' Roll Revival September 13,
TTITLE8=1969] [mono 1978]
TTITLE9=Sweet Little Sixteen [live - Toronto Rock 'n' Roll Revival September 13
TTITLE9=, 1969] [mono 1978]
TTITLE10=My Ding-A-Ling [live - Toronto Rock 'n' Roll Revival September 13, 196
TTITLE10=9] [mono 1978]
TTITLE11=Bonsoir Cherie [live - Toronto Rock 'n' Roll Revival September 13, 196
TTITLE11=9] [mono 1978]
TTITLE12=Johnny B. Goode [live - Toronto Rock 'n' Roll Revival September 13, 19
TTITLE12=69] [mono 1978]
TTITLE13=Maybelline [live - Toronto Rock 'n' Roll Revival September 13, 1969] [
TTITLE13=mono 1978]
EXTD=
EXTT0=
EXTT1=
EXTT2=
EXTT3=
EXTT4=
EXTT5=
EXTT6=
EXTT7=
EXTT8=
EXTT9=
EXTT10=
EXTT11=
EXTT12=
EXTT13=
PLAYORDER=
